<?xml version="1.0" encoding="utf-8"?><svg viewBox="0 0 63 63" xmlns="http://www.w3.org/2000/svg" xmlns:xlink="http://www.w3.org/1999/xlink"><style>:root>svg{display:none}:root>svg:target{display:block}</style><svg fill="none" viewBox="0 0 32 32" id="arrow-left" xmlns="http://www.w3.org/2000/svg"><path d="M27 16H5M14 7l-9 9 9 9" stroke="unset" stroke-width="2" stroke-linejoin="round" stroke-linecap="round"/></svg><svg fill="none" viewBox="0 0 32 32" id="arrow-right" xmlns="http://www.w3.org/2000/svg"><path d="M5 16h22M18 7l9 9-9 9" stroke="unset" stroke-width="2" stroke-linejoin="round" stroke-linecap="round"/></svg><svg viewBox="0 0 24 24" id="arrow-small-right" xmlns="http://www.w3.org/2000/svg"><path d="M13.121 6.293a1 1 0 000 1.414L16.413 11 6 11.007a1 1 0 000 2L16.414 13l-3.293 3.293a1 1 0 101.414 1.414l3.586-3.585a3 3 0 000-4.243l-3.586-3.586a1 1 0 00-1.414 0z" fill="#fff"/></svg><svg viewBox="0 0 44 44" id="asian_food" xmlns="http://www.w3.org/2000/svg"><g clip-path="url(#dclip0_0_200)"><path d="M15.132 13.567h2.124c.552 0 1 .448 1 1v1.465a.644.644 0 101.29 0v-1.465a2.292 2.292 0 00-2.29-2.29h-2.124a.984.984 0 010-1.965h4.711a2.275 2.275 0 002.272-2.273 2.275 2.275 0 00-2.272-2.272h-3.77a.645.645 0 000 1.29h3.77a.984.984 0 010 1.965h-4.711a2.275 2.275 0 00-2.273 2.272 2.275 2.275 0 002.273 2.273zM7.389 17.892h2.108c.544 0 .987.443.987.988v1.454a.644.644 0 101.29 0V18.88a2.279 2.279 0 00-2.277-2.277H7.39a.972.972 0 010-1.94h2.465a.645.645 0 100-1.29H7.389a2.262 2.262 0 00-2.26 2.26 2.262 2.262 0 002.26 2.26zM25.652 26.813a.645.645 0 100-1.29.645.645 0 000 1.29zM28.832 28.273a.645.645 0 100-1.289.645.645 0 000 1.29zM30.723 30.508a.645.645 0 100-1.29.645.645 0 000 1.29zM28.059 25.266a.644.644 0 100-1.29.644.644 0 000 1.29zM25.91 30.938a.645.645 0 100-1.29.645.645 0 000 1.29z"/><path d="M42.911 22.81h-1.828l.904-1.867A2.507 2.507 0 0044 18.49a2.507 2.507 0 00-2.102-2.47c-1.315-2.37-3.885-4.149-7.001-4.86v-.048a.644.644 0 00-1.264-.176 13.86 13.86 0 00-1.197-.1.644.644 0 00-1.163 0c-.405.017-.804.05-1.197.1a.644.644 0 00-1.264.176v.049c-3.116.71-5.686 2.49-7.001 4.859a2.506 2.506 0 00-2.093 2.685c-2.975.277-5.649 1.52-7.655 3.386h-4.05a.908.908 0 00-.69.318H5.43a2.118 2.118 0 00-1.957-1.337 2.106 2.106 0 00-2.082 2.397 2.107 2.107 0 00-1.066 3.104 2.106 2.106 0 001.778 3.229c.878 0 1.648-.554 1.958-1.337h1.704a.91.91 0 00.586.623l2.02.686a10.897 10.897 0 00-.002 1.223c-.316.076-.61.207-.873.383a2.701 2.701 0 00-1.51-.46 2.721 2.721 0 00-2.717 2.719l.002.068h-.754c-.426 0-.803.24-.985.624a1.08 1.08 0 00.144 1.156l1.934 2.35c.207.252.514.397.84.397h27.26a.644.644 0 100-1.29H4.545l-1.604-1.948h39.544l-1.603 1.949h-6.164a.645.645 0 100 1.289h6.258c.327 0 .633-.145.84-.397l1.934-2.35a1.08 1.08 0 00.144-1.156 1.079 1.079 0 00-.984-.624h-.638a5.411 5.411 0 00.64-3.671.645.645 0 00-.52-.52 5.409 5.409 0 00-5.008 1.731c-.37-.2-.79-.316-1.237-.325v-1.226h.688c1.09 0 1.977-.887 1.977-1.977v-.865h4.1c.6 0 1.088-.488 1.088-1.088v-1.866c0-.6-.488-1.088-1.089-1.088zM6.291 33.707H4.56l-.002-.068a1.43 1.43 0 012.053-1.284 2.7 2.7 0 00-.323 1.284c0 .023.002.045.003.068zm32.225-1.784a4.117 4.117 0 013.184-1.195 4.118 4.118 0 01-1.005 2.98h-1.063l.881-.881a.645.645 0 10-.911-.912l-.914.913a2.71 2.71 0 00-.348-.717c.057-.064.115-.127.176-.188zm-13.013-17.98a10.714 10.714 0 013.309-1.452v.663a.644.644 0 101.29 0v-.918c.364-.053.735-.087 1.108-.106v1.024a.645.645 0 001.289 0V12.13c.373.02.743.054 1.109.106v.918a.645.645 0 001.289 0v-.663c1.206.308 2.333.799 3.309 1.452.95.637 1.724 1.406 2.288 2.256a2.526 2.526 0 00-.604.375 2.506 2.506 0 00-1.607-.587c-.595 0-1.163.215-1.607.587a2.506 2.506 0 00-1.607-.587c-.595 0-1.163.215-1.607.587a2.506 2.506 0 00-1.608-.587c-.594 0-1.162.215-1.607.587a2.506 2.506 0 00-1.607-.587c-.594 0-1.162.215-1.607.587a2.506 2.506 0 00-1.607-.587c-.594 0-1.162.215-1.607.587a2.524 2.524 0 00-.605-.375c.565-.85 1.339-1.62 2.29-2.256zm-3.291 3.333c.43 0 .832.233 1.05.607a.645.645 0 001.114 0c.217-.374.62-.607 1.05-.607.43 0 .832.233 1.05.607a.645.645 0 001.115 0c.217-.374.619-.607 1.05-.607.43 0 .832.233 1.049.607a.645.645 0 001.115 0c.217-.374.62-.607 1.05-.607.43 0 .832.233 1.049.607a.645.645 0 001.115 0c.217-.374.62-.607 1.05-.607.43 0 .832.233 1.05.607a.645.645 0 001.114 0c.217-.374.62-.607 1.05-.607.43 0 .832.233 1.05.607a.645.645 0 001.114 0c.218-.374.62-.607 1.05-.607a1.215 1.215 0 010 2.427c-.43 0-.832-.232-1.05-.607a.645.645 0 00-1.114 0c-.218.375-.62.608-1.05.608-.43 0-.833-.233-1.05-.608a.645.645 0 00-1.115 0c-.217.375-.62.608-1.05.608-.43 0-.832-.233-1.049-.608a.645.645 0 00-1.115 0c-.217.375-.62.608-1.05.608-.43 0-.832-.233-1.05-.608a.645.645 0 00-1.114 0c-.218.375-.62.608-1.05.608-.43 0-.832-.233-1.05-.608a.645.645 0 00-1.114 0 1.22 1.22 0 01-.54.493 13.366 13.366 0 00-4.927-.942 1.215 1.215 0 011.202-1.37zM8.392 23.38h2.472a11.78 11.78 0 00-.712.983h-1.76v-.983zm-2.66 3.796H3.558a.644.644 0 00-.643.59.818.818 0 01-.81.747.815.815 0 01-.519-1.443.645.645 0 000-.993.815.815 0 01.519-1.443c.42 0 .776.327.81.746a.644.644 0 00.643.59h2.176v1.206zm.221-2.494H4.061a2.129 2.129 0 00-1.36-1.248.813.813 0 111.583-.327.645.645 0 00.642.591h2.177v.665h-.46a.909.909 0 00-.69.319zm4.48 9.025H7.58a1.43 1.43 0 011.427-1.497 1.43 1.43 0 011.428 1.429l-.002.068zm19.879 0h-2.244l-.002-.068a1.43 1.43 0 012.439-1.01 2.704 2.704 0 00-.196 1.01c0 .023.002.045.003.068zm-.817-2.786a2.721 2.721 0 00-2.719 2.718c0 .023.002.045.003.068H11.722l.002-.068c0-1.273-.88-2.344-2.063-2.638a9.734 9.734 0 01-.016-.795l6.592 2.239a4.113 4.113 0 003.753-.556 4.106 4.106 0 001.732-3.375c0-.484-.083-.96-.247-1.413a.645.645 0 00-1.212.44c.113.311.17.639.17.973a2.83 2.83 0 01-1.195 2.327 2.83 2.83 0 01-2.587.383l-9.629-3.27v-2.302h10.55c.323 0 .641.055.946.162a.644.644 0 10.427-1.217 4.142 4.142 0 00-1.373-.234h-5.845c2.056-2.676 5.438-4.428 9.256-4.428 6.253 0 11.34 4.696 11.34 10.468 0 .206-.006.412-.02.616-.389.108-.743.3-1.042.556a2.705 2.705 0 00-1.766-.654zm4.959 2.786h-2.853a1.43 1.43 0 011.427-1.497c.787 0 1.428.64 1.428 1.429 0 .023 0 .046-.002.068zm.404-2.486a2.72 2.72 0 00-.297.175 2.706 2.706 0 00-.964-.413 10.977 10.977 0 00-.01-1.287h1.271v1.525zm2.665 2.418c0 .023-.002.045-.003.068h-1.777l.002-.068a2.7 2.7 0 00-.313-1.266 1.43 1.43 0 012.09 1.265zm0-5.92c0 .38-.309.688-.688.688h-3.407c-.098-.53-.232-1.05-.404-1.553h4.499v.865zm5.188-2.154H32.493a11.526 11.526 0 00-.853-1.464h2.735a.644.644 0 100-1.29h-3.756a12.413 12.413 0 00-2.077-1.82 2.46 2.46 0 001.705-.586 2.507 2.507 0 001.607.588c.595 0 1.163-.215 1.608-.588a2.506 2.506 0 001.607.588c.594 0 1.162-.215 1.607-.588a2.506 2.506 0 001.607.588c.594 0 1.162-.215 1.607-.588.215.18.459.323.72.423l-.96 1.984h-2.267a.644.644 0 100 1.289h5.328v1.464z"/></g><defs><clipPath id="dclip0_0_200"><path fill="#fff" d="M0 0h44v44H0z"/></clipPath></defs></svg><svg viewBox="0 0 44 44" id="burger" xmlns="http://www.w3.org/2000/svg"><g clip-path="url(#eclip0_0_161)"><path d="M44 20.336c0-1.69-1.09-3.128-2.602-3.653-.232-5.241-2.189-9.263-5.825-11.966C32.254 2.251 27.688 1 22 1 16.312 1 11.746 2.25 8.427 4.717 4.791 7.42 2.834 11.442 2.602 16.683A3.873 3.873 0 000 20.336c0 .99.374 1.893.988 2.578A3.851 3.851 0 000 25.492c0 1.7 1.103 3.146 2.63 3.663.553 5.89 5.56 10.517 11.636 10.517h15.468c6.076 0 11.084-4.627 11.636-10.517A3.873 3.873 0 0044 25.492c0-.99-.374-1.893-.988-2.578A3.852 3.852 0 0044 20.336zM22 3.578c7.393 0 16.151 2.28 16.803 12.89H5.197C5.849 5.859 14.607 3.579 22 3.579zM3.867 19.047h36.266c.71 0 1.289.578 1.289 1.289 0 .71-.578 1.289-1.29 1.289H3.868a1.29 1.29 0 01-1.289-1.29c0-.71.578-1.288 1.29-1.288zm25.867 18.047H14.266c-4.581 0-8.383-3.367-9.016-7.735h1.195c.862 0 1.134.293 1.677.878.667.718 1.58 1.7 3.566 1.7 2 0 2.889-.993 3.538-1.718.513-.572.77-.86 1.618-.86.848 0 1.105.288 1.617.86.65.725 1.54 1.718 3.539 1.718 2 0 2.89-.993 3.538-1.718.513-.572.77-.86 1.618-.86.848 0 1.105.288 1.618.86.65.725 1.539 1.718 3.538 1.718 2 0 2.89-.993 3.539-1.718.513-.572.77-.86 1.618-.86h1.281c-.633 4.367-4.435 7.735-9.016 7.735zM40.133 26.78h-2.664c-2 0-2.89.993-3.539 1.719-.512.572-.77.86-1.617.86-.848 0-1.106-.288-1.618-.86-.65-.726-1.539-1.719-3.539-1.719s-2.889.993-3.538 1.719c-.513.572-.77.86-1.618.86-.848 0-1.105-.288-1.618-.86-.65-.726-1.538-1.719-3.538-1.719-2 0-2.89.993-3.539 1.719-.512.572-.77.86-1.617.86-.862 0-1.135-.294-1.677-.878-.667-.718-1.58-1.7-3.566-1.7H3.867a1.29 1.29 0 01-1.289-1.29c0-.71.578-1.289 1.29-1.289h36.265a1.29 1.29 0 010 2.578z"/><path d="M14.266 13.89a1.289 1.289 0 100-2.577 1.289 1.289 0 000 2.578zM29.734 13.89a1.289 1.289 0 100-2.577 1.289 1.289 0 000 2.578zM24.578 11.313a1.289 1.289 0 100-2.579 1.289 1.289 0 000 2.579zM19.422 8.734a1.289 1.289 0 100-2.578 1.289 1.289 0 000 2.578z"/></g><defs><clipPath id="eclip0_0_161"><path d="M0 0h44v44H0z"/></clipPath></defs></svg><svg fill="none" viewBox="0 0 21 20" id="buy" xmlns="http://www.w3.org/2000/svg"><g stroke="#363853" stroke-width="1.5" stroke-linecap="round" stroke-linejoin="round"><path d="M1 1.176l2.08.356.963 11.34c.077.926.86 1.636 1.8 1.633h10.909a1.794 1.794 0 001.785-1.528l.949-6.482a1.328 1.328 0 00-1.135-1.501c-.064-.009-14.937-.014-14.937-.014M12.375 8.633h2.773"/><path fill-rule="evenodd" clip-rule="evenodd" d="M5.404 17.932a.54.54 0 01.544.538.541.541 0 01-.544.539.541.541 0 01-.544-.54.54.54 0 01.544-.537zM16.685 17.932c.3 0 .545.24.545.538a.542.542 0 01-.545.539.541.541 0 01-.544-.54.54.54 0 01.544-.537z" fill="#363853"/></g></svg><svg fill="none" viewBox="0 0 22 22" id="calling" xmlns="http://www.w3.org/2000/svg"><path d="M13.353 1.5a7.97 7.97 0 017.04 7.032M13.353 5.043a4.426 4.426 0 013.5 3.5" stroke="#363853" stroke-width="1.5" stroke-linecap="round" stroke-linejoin="round"/><path clip-rule="evenodd" d="M10.031 11.472c3.99 3.988 4.894-.625 7.434 1.913 2.449 2.448 3.857 2.938.754 6.04-.389.312-2.858 4.07-11.535-4.605-8.677-8.676-4.922-11.148-4.61-11.536 3.11-3.11 3.593-1.695 6.041.753 2.54 2.54-2.072 3.447 1.916 7.435z" stroke="#363853" stroke-width="1.5" stroke-linecap="round" stroke-linejoin="round"/></svg><svg fill="none" viewBox="0 0 33 34" id="delivery" xmlns="http://www.w3.org/2000/svg"><path d="M5.75 25.544l.36.856a3.89 3.89 0 01.789-.23l-.168-.912c-.336.06-.665.157-.98.286z" fill="url(#hpaint0_linear_0_399)"/><path d="M3.288 27.844l.844.404a3.813 3.813 0 011.289-1.48l-.53-.764a4.745 4.745 0 00-1.603 1.84z" fill="url(#hpaint1_linear_0_399)"/><path d="M29.063 27.583c0-.798-.297-1.568-.836-2.162l-.699.618c.277.305.467.678.55 1.08h-3.234a.473.473 0 00-.39.207l-1.736 2.573h-1.155v-1.39c0-.86.347-1.684.962-2.292a3.304 3.304 0 012.319-.95h.937c.461-.002.912.133 1.296.385l.519-.771a3.285 3.285 0 00-1.346-.508V22.95a.46.46 0 00-.137-.328.471.471 0 00-.332-.136c-.497 0-.973-.195-1.325-.543a1.844 1.844 0 01-.55-1.31V18.78h1.407a.472.472 0 00.331-.136.46.46 0 00.137-.327v-3.244a.46.46 0 00-.137-.327.472.472 0 00-.331-.136h-.827c-.196 0-.391.027-.58.08v-.543a.46.46 0 00-.102-.29l-1.534-1.895a1.605 1.605 0 00-.38-2.087 1.653 1.653 0 00-2.144.069 1.607 1.607 0 00-.242 2.107 1.658 1.658 0 002.075.541l1.39 1.717v.585l-2.061-.679a1.277 1.277 0 00-.42-.068h-3.866l-2.226-2.566A1.394 1.394 0 0015 10.44v-.178l.678-.335a.467.467 0 00.253-.49.46.46 0 00-.072-.181l-.77-1.142a.47.47 0 00.38-.454c-.001-.737-.298-1.444-.825-1.965a2.832 2.832 0 00-1.988-.815c-.883 0-1.7.25-2.308.914a2.778 2.778 0 00-.713 2.142l.1.991c.042.427.25.822.578 1.103v8.749c0 .325.086.645.252.927h-.721c-.16 0-.318.026-.469.08v-6.103c0-.369-.149-.722-.412-.983a1.416 1.416 0 00-.994-.407H2.344c-.373 0-.73.147-.994.407s-.412.614-.413.983V16h.938v-.927h6.563v4.634H1.875v-2.78H.937v3.783a.92.92 0 00.218.594.94.94 0 00.552.318l4.387.788v1.087a6.695 6.695 0 00-1.16.38h-2.59a.472.472 0 00-.332.135.46.46 0 00-.137.328v2.199a6.523 6.523 0 00-.938 3.36c0 .123.05.241.138.328a.472.472 0 00.331.136h2.149c.28.684.76 1.27 1.38 1.683a3.781 3.781 0 004.193 0c.619-.413 1.1-.999 1.38-1.683h7.881a2.371 2.371 0 001.734-.758l.502-.546v1.304c0 .123.05.24.137.327a.471.471 0 00.332.136h.971a3.737 3.737 0 001.813 1.571 3.792 3.792 0 002.405.156 3.753 3.753 0 002.005-1.324 3.678 3.678 0 00.622-3.305.462.462 0 00.152-.341zm-8.907-16.448a.69.69 0 01.434-.642.71.71 0 01.767.151.692.692 0 01-.498 1.186.708.708 0 01-.497-.203.692.692 0 01-.206-.492zM13.45 27.583c-.459 0-.899-.181-1.224-.502a1.704 1.704 0 01-.507-1.21c0-.454.116-.88.423-1.23.273-.31.65-.514 1.063-.573.498-.07.954-.316 1.284-.692.33-.375.51-.856.511-1.353a.457.457 0 00-.137-.328 1.373 1.373 0 00.056-1.062h1.273l-2.056 5.286c-.05.128-.075.263-.073.4v1.264h-.613zm1.55-.927h2.344a.473.473 0 01.448.33.458.458 0 01-.188.519.948.948 0 01-.374.078H15v-.927zm3.638-.08a1.396 1.396 0 00-.427-.55 1.418 1.418 0 00-.641-.278l1.941-4.62a2.673 2.673 0 00-.251-2.536 2.72 2.72 0 00-.985-.883c-.396-.21-.839-.319-1.289-.319H15v-.735l.137.136a.47.47 0 00.332.136h4.768a1.375 1.375 0 00.177 1.266 1.401 1.401 0 001.148.587h.002c-.306.4-.47.888-.47 1.39v3.594c-.001.246-.1.481-.275.655l-2.181 2.156zm2.924-8.723a.473.473 0 01-.433-.286.459.459 0 01.102-.505.47.47 0 01.8.328.46.46 0 01-.137.328.472.472 0 01-.331.135zm3.282-2.316v2.316h-.938v-2.172c.178-.094.378-.144.58-.144h.358zm-1.875 1.853a1.376 1.376 0 00-.595-1.135 1.415 1.415 0 00-1.28-.175v-.827l1.875.618v1.52zm-6.563-2.317h3.75V16h-4.493l-2.675-2.644-.663.655 1.738 1.718v1.661H11.25v-5.56h2.128l2.672 3.082a.47.47 0 00.356.161zm-5.363-8.656c.429-.468.998-.61 1.613-.61.416 0 .82.138 1.148.39.329.25.563.603.668 1h-1.816a.471.471 0 00-.331.136.46.46 0 00-.137.328v1.1a.748.748 0 01-.211.517.766.766 0 01-1.309-.442l-.1-.99a1.812 1.812 0 01.475-1.429zm.383 4.023c.45 0 .882-.177 1.2-.492.32-.315.498-.742.499-1.187v-.637h.938c0 .091.027.18.078.257l.643.953-.463.229a.467.467 0 00-.258.414v.463c0 .123-.05.241-.138.328a.472.472 0 01-.331.136H11.25v-.473c.058.006.117.01.176.01zm-.176 8.34v-.463h5.736c.296 0 .587.072.847.21.261.137.483.336.647.58a1.763 1.763 0 01.165 1.666l-2.083 4.957h-1.348l2.098-5.394a.458.458 0 00-.219-.576.473.473 0 00-.218-.053h-4.688a.944.944 0 01-.662-.272.922.922 0 01-.275-.655zm-1.406 1.853h3.75c.124 0 .243.049.331.136a.46.46 0 01-.331.79h-3.75a.472.472 0 01-.332-.135.46.46 0 010-.655.472.472 0 01.332-.136zm-7.969-6.486v-.463c0-.123.05-.241.137-.328a.472.472 0 01.332-.136h5.625c.124 0 .243.05.331.136a.461.461 0 01.137.328v.463H1.875zm0 6.486h6.563v.927H6.604l-4.73-.85v-.077zm1.517 4.17a6.61 6.61 0 00-.58.524v-.524h.58zm3.64 6.95a2.859 2.859 0 01-1.405-.376 2.818 2.818 0 01-1.03-1.014h1.195a1.885 1.885 0 002.478 0h1.196c-.248.42-.603.77-1.03 1.014a2.859 2.859 0 01-1.405.376zm12.398-2.771a1.409 1.409 0 01-1.04.454H1.893A5.61 5.61 0 013.3 26.17a5.724 5.724 0 013.1-1.79c.121-.027.245-.04.369-.04h3.076v-.927H7.03v-.927h6.932a1.142 1.142 0 01-.89.665 2.685 2.685 0 00-1.64.883c-.453.516-.652 1.162-.652 1.838 0 .627.227 1.234.64 1.71H7.5v.927h9.73a1.92 1.92 0 001.326-.542l2.926-2.893c.35-.348.548-.819.55-1.31V20.17c0-.287.09-.568.258-.802.168-.235.405-.412.679-.509v1.774c0 .657.236 1.292.665 1.794a2.824 2.824 0 001.678.947v.966c-.29 0-.588-.018-.878.02a4.252 4.252 0 00-2.367 1.014 4.17 4.17 0 00-1.33 2.186l-1.307 1.422zm5.665-.936h.023l.566.56a.52.52 0 01.066.655.524.524 0 01-.54.221.527.527 0 01-.27-.142l-.43-.426.585-.868zm.218 3.707a2.855 2.855 0 01-2.138-.975.465.465 0 00.184-.158l.406-.603c.226.328.552.575.93.705.378.131.789.139 1.171.022.383-.117.718-.352.956-.67a1.838 1.838 0 00.113-2.028h1.03a2.75 2.75 0 01-.357 2.531c-.26.363-.603.66-1.003.864-.4.204-.843.311-1.293.312z" fill="url(#hpaint2_linear_0_399)"/><path d="M3.75 16h-.938v2.78h.938V16z" fill="url(#hpaint3_linear_0_399)"/><ellipse opacity=".15" cx="20.5" cy="12.572" rx="12.5" ry="12.572" fill="url(#hpaint4_linear_0_399)"/><defs><linearGradient id="hpaint0_linear_0_399" x1="5.751" y1="25.791" x2="6.871" y2="25.796" gradientUnits="userSpaceOnUse"><stop stop-color="#47C2FF"/><stop offset="1" stop-color="#1CB4FF" stop-opacity=".71"/></linearGradient><linearGradient id="hpaint1_linear_0_399" x1="3.288" y1="27.051" x2="5.37" y2="27.06" gradientUnits="userSpaceOnUse"><stop stop-color="#47C2FF"/><stop offset="1" stop-color="#1CB4FF" stop-opacity=".71"/></linearGradient><linearGradient id="hpaint2_linear_0_399" x1=".938" y1="17.853" x2="28.388" y2="17.977" gradientUnits="userSpaceOnUse"><stop stop-color="#47C2FF"/><stop offset="1" stop-color="#1CB4FF" stop-opacity=".71"/></linearGradient><linearGradient id="hpaint3_linear_0_399" x1="2.813" y1="17.297" x2="3.728" y2="17.298" gradientUnits="userSpaceOnUse"><stop stop-color="#47C2FF"/><stop offset="1" stop-color="#1CB4FF" stop-opacity=".71"/></linearGradient><linearGradient id="hpaint4_linear_0_399" x1="8" y1="11.733" x2="32.401" y2="11.842" gradientUnits="userSpaceOnUse"><stop stop-color="#47C2FF"/><stop offset="1" stop-color="#63CBFE"/></linearGradient></defs></svg><svg viewBox="0 0 44 45" id="dish" xmlns="http://www.w3.org/2000/svg"><g clip-path="url(#iclip0_0_228)"><path d="M31.158 15.53l-.47-1.53c-.599-1.74-2.51-2.671-4.27-2.08A3.347 3.347 0 0024.312 14l-.47 1.53a8.507 8.507 0 00-.243 3.987 3.753 3.753 0 001.953 2.613l-.527 11.65c-.07.65.143 1.3.587 1.785a2.583 2.583 0 003.78 0 2.248 2.248 0 00.587-1.736l-.53-11.7a3.753 3.753 0 001.95-2.612 8.508 8.508 0 00-.242-3.986zm-1.202 3.735a2.307 2.307 0 01-1.522 1.732.725.725 0 00-.474.71l.557 12.237a.832.832 0 01-.22.656 1.142 1.142 0 01-1.594 0 .863.863 0 01-.216-.704l.553-12.188a.725.725 0 00-.474-.711 2.307 2.307 0 01-1.522-1.732 7.069 7.069 0 01.202-3.31l.47-1.532a1.908 1.908 0 013.568 0l.47 1.533a7.077 7.077 0 01.202 3.31zM19.8 11.746a.73.73 0 00-.733.725v6.223l-1.986 1.962a.72.72 0 00-.214.549l.641 12.684a.98.98 0 01-.277.739c-.401.4-1.055.403-1.46.006l-.007-.006a.98.98 0 01-.277-.739l.646-12.684a.72.72 0 00-.214-.549l-1.986-1.962v-6.223a.73.73 0 00-.733-.725.73.73 0 00-.733.725v6.523a.72.72 0 00.214.512l1.97 1.948-.625 12.365c-.067 1.35.987 2.499 2.354 2.565 1.366.065 2.528-.976 2.594-2.327.004-.08.004-.159 0-.238l-.625-12.365 1.97-1.947a.72.72 0 00.214-.513v-6.523a.73.73 0 00-.733-.725z"/><path d="M15.4 11.746a.73.73 0 00-.733.725v5.798c0 .4.328.725.733.725a.73.73 0 00.733-.725v-5.798a.73.73 0 00-.733-.725zM17.6 11.746a.73.73 0 00-.733.725v5.798c0 .4.328.725.733.725a.73.73 0 00.733-.725v-5.798a.73.73 0 00-.733-.725z"/><path d="M22 .874C9.85.874 0 10.609 0 22.618c0 12.01 9.85 21.745 22 21.745s22-9.736 22-21.745C43.986 10.615 34.145.888 22 .874zm0 42.04c-11.34 0-20.533-9.087-20.533-20.296C1.467 11.41 10.66 2.323 22 2.323c11.34 0 20.533 9.087 20.533 20.295C42.52 33.822 33.335 42.901 22 42.913z"/><path d="M24.38 36.225a.731.731 0 00-.83-.648l.004-.001a13.618 13.618 0 01-3.108 0 .732.732 0 00-.814.636.727.727 0 00.643.805c1.145.132 2.302.132 3.447 0a.727.727 0 00.658-.792zM33.22 13.278a.74.74 0 00-1.033-.09l-.003.003a.72.72 0 00-.088 1.021 12.936 12.936 0 01-.778 17.648.719.719 0 00-.002 1.025.74.74 0 001.037.002 14.374 14.374 0 00.867-19.609zM17.086 10.455h-.002-.002.004zM25.46 8.527a14.96 14.96 0 00-8.633.524.722.722 0 00.258 1.403.743.743 0 00.256-.047 13.47 13.47 0 017.773-.471.724.724 0 10.345-1.41z"/><g><path d="M12.65 31.823a12.887 12.887 0 01-3.85-9.205 12.85 12.85 0 012.523-7.674.72.72 0 00-.145-1.015.74.74 0 00-1.04.16 14.371 14.371 0 001.472 18.76.74.74 0 001.039.001.72.72 0 000-1.027z"/></g></g><defs><clipPath id="iclip0_0_228"><path fill="#fff" transform="translate(0 .874)" d="M0 0h44v43.489H0z"/></clipPath></defs></svg><svg fill="none" viewBox="0 0 39 39" id="facebook" xmlns="http://www.w3.org/2000/svg"><circle cx="19.5" cy="19.5" r="19.5" fill="#EEEEEF"/><path d="M16.915 29.763v-9.631h-2.547v-3.468h2.547v-2.962c0-2.328 1.505-4.465 4.971-4.465 1.404 0 2.441.134 2.441.134l-.082 3.239s-1.058-.01-2.213-.01c-1.25 0-1.45.575-1.45 1.532v2.532h3.763l-.164 3.468h-3.6v9.631h-3.666z" fill="#363853"/></svg><svg viewBox="0 0 17 16" id="fly" xmlns="http://www.w3.org/2000/svg"><path d="M10.525 14.3a.651.651 0 01-.582-.36l-1.929-3.858a.652.652 0 01.047-.66L11.175 5.2 6.953 8.314a.653.653 0 01-.66.046L2.433 6.432A.651.651 0 012.5 5.24L14.85.69a.652.652 0 01.835.835l-4.55 12.35a.649.649 0 01-.574.424l-.036.001z"/></svg><svg fill="none" viewBox="0 0 39 39" id="instagram" xmlns="http://www.w3.org/2000/svg"><circle cx="19.5" cy="19.5" r="19.5" fill="#EEEEEF"/><path d="M18.985 16.762a3.258 3.258 0 00-3.252 3.251 3.258 3.258 0 003.252 3.252 3.258 3.258 0 003.25-3.252 3.258 3.258 0 00-3.25-3.251zm9.751 3.251c0-1.346.012-2.68-.063-4.024-.076-1.562-.432-2.947-1.573-4.088-1.144-1.144-2.527-1.498-4.088-1.574-1.347-.075-2.681-.063-4.025-.063-1.346 0-2.68-.012-4.025.063-1.56.076-2.946.432-4.088 1.574-1.144 1.143-1.497 2.527-1.573 4.088-.076 1.346-.063 2.68-.063 4.024 0 1.344-.013 2.68.063 4.025.076 1.56.432 2.946 1.573 4.088 1.144 1.144 2.527 1.497 4.088 1.573 1.347.076 2.68.063 4.025.063 1.346 0 2.68.013 4.025-.063 1.56-.076 2.946-.432 4.087-1.573 1.145-1.144 1.498-2.527 1.574-4.088.078-1.344.063-2.678.063-4.025zm-9.752 5.003a4.996 4.996 0 01-5.002-5.003 4.996 4.996 0 015.003-5.003 4.996 4.996 0 015.002 5.003 4.996 4.996 0 01-5.002 5.003zm5.208-9.042a1.167 1.167 0 01-1.168-1.168c0-.647.522-1.169 1.168-1.169a1.167 1.167 0 01.827 1.995 1.166 1.166 0 01-.827.342z" fill="#363853"/></svg><svg viewBox="0 0 34 34" id="left-arrow" xmlns="http://www.w3.org/2000/svg"><g clip-path="url(#mclip0_0_366)"><path d="M0 17C0 7.626 7.626 0 17 0c9.374 0 17 7.626 17 17 0 9.374-7.627 17-17 17-9.373 0-17-7.626-17-17zm31.366 0c0-7.92-6.444-14.366-14.366-14.366S2.634 9.079 2.634 17c0 7.922 6.444 14.366 14.366 14.366S31.366 24.921 31.366 17z"/><path d="M18.817 24.519l-6.584-6.584a1.316 1.316 0 010-1.857l6.584-6.584a1.316 1.316 0 011.857 1.857L15.024 17l5.65 5.662c.51.514.51 1.343 0 1.857a1.316 1.316 0 01-1.857 0z"/></g><defs><clipPath id="mclip0_0_366"><path fill="#fff" transform="matrix(0 1 1 0 0 0)" d="M0 0h34v34H0z"/></clipPath></defs></svg><svg fill="none" viewBox="0 0 22 20" id="message" xmlns="http://www.w3.org/2000/svg"><path d="M16.903 6.851l-4.444 3.613c-.84.666-2.02.666-2.86 0L5.12 6.851" stroke="#363853" stroke-width="1.5" stroke-linecap="round" stroke-linejoin="round"/><path clip-rule="evenodd" d="M15.909 19C18.95 19.008 21 16.51 21 13.438V6.57C21 3.499 18.95 1 15.909 1H6.09C3.05 1 1 3.499 1 6.57v6.868C1 16.51 3.05 19.008 6.091 19h9.818z" stroke="#363853" stroke-width="1.5" stroke-linecap="round" stroke-linejoin="round"/></svg><svg fill="none" viewBox="0 0 18 20" id="pin" xmlns="http://www.w3.org/2000/svg"><path clip-rule="evenodd" d="M11.5 8.5a2.5 2.5 0 10-5 0 2.5 2.5 0 005 0z" stroke="#363853" stroke-width="1.5" stroke-linecap="round" stroke-linejoin="round"/><path clip-rule="evenodd" d="M9 19C7.8 19 1.5 13.898 1.5 8.563 1.5 4.387 4.857 1 9 1c4.142 0 7.5 3.387 7.5 7.563C16.5 13.898 10.198 19 9 19z" stroke="#363853" stroke-width="1.5" stroke-linecap="round" stroke-linejoin="round"/></svg><svg fill="none" viewBox="0 0 39 39" id="pinterest" xmlns="http://www.w3.org/2000/svg"><circle cx="19.5" cy="19.5" r="19.5" fill="#EEEEEF"/><path d="M11.29 16.6c0-.888.155-1.726.46-2.509a6.421 6.421 0 011.28-2.055 8.685 8.685 0 011.874-1.516c.71-.43 1.48-.754 2.284-.963a9.775 9.775 0 012.492-.32c1.3 0 2.509.274 3.63.822a6.868 6.868 0 012.727 2.389c.7 1.043 1.049 2.224 1.049 3.54 0 .79-.078 1.562-.237 2.317a9.442 9.442 0 01-.736 2.182 7.533 7.533 0 01-1.235 1.844 5.388 5.388 0 01-1.788 1.271 5.66 5.66 0 01-2.333.476 3.823 3.823 0 01-1.664-.395c-.55-.262-.945-.623-1.182-1.085-.083.32-.197.784-.349 1.39-.146.604-.244.994-.287 1.171-.046.176-.13.469-.254.875-.083.3-.19.594-.32.877l-.393.769c-.17.33-.359.65-.567.956-.207.299-.463.656-.767 1.066l-.17.06-.113-.122c-.122-1.293-.185-2.066-.185-2.322 0-.756.09-1.605.268-2.547.175-.94.45-2.124.822-3.546.37-1.421.582-2.257.64-2.505-.262-.533-.394-1.228-.394-2.084 0-.683.213-1.323.641-1.925.429-.6.97-.9 1.628-.9.503 0 .893.166 1.172.5.281.334.418.753.418 1.265 0 .543-.18 1.33-.543 2.357-.363 1.029-.543 1.797-.543 2.306 0 .517.185.95.554 1.288.365.34.847.523 1.345.512.452 0 .87-.102 1.26-.309.382-.2.714-.486.968-.836a6.985 6.985 0 001.16-2.538c.11-.481.194-.939.246-1.369.056-.432.08-.84.08-1.228 0-1.423-.452-2.531-1.35-3.325-.901-.794-2.076-1.189-3.522-1.189-1.643 0-3.018.532-4.119 1.598-1.101 1.063-1.656 2.415-1.656 4.054 0 .362.055.71.159 1.049.101.336.212.604.332.803.118.195.23.385.332.56.102.176.156.302.156.377 0 .23-.06.53-.183.901-.126.371-.276.556-.456.556-.017 0-.088-.013-.21-.039a2.52 2.52 0 01-1.118-.69 3.616 3.616 0 01-.751-1.166 7.962 7.962 0 01-.402-1.333 5.568 5.568 0 01-.15-1.315z" fill="#363853"/></svg><svg viewBox="0 0 63 63" id="pizza" xmlns="http://www.w3.org/2000/svg"><g clip-path="url(#qclip0_0_172)"><path d="M61.87 31.117a.859.859 0 01-.491.771l-34.24 16.24a4.698 4.698 0 01-2.769 3.25 4.706 4.706 0 01-6.142-2.545 46.08 46.08 0 01-3.525-17.721 46.078 46.078 0 013.525-17.721 4.675 4.675 0 011.015-1.52 4.708 4.708 0 015.127-1.024 4.687 4.687 0 012.563 2.6L61.39 30.34a.86.86 0 01.481.777zM31.034 44.38l3.629-1.72a2.186 2.186 0 00-2.475-2.102 2.176 2.176 0 00-1.452.839 2.176 2.176 0 00-.434 1.619c.07.534.329 1.014.732 1.364zm-7.322-31.944a2.985 2.985 0 00-3.896 1.614c-4.558 11.003-4.558 23.123 0 34.126a2.963 2.963 0 001.614 1.614 2.963 2.963 0 002.282 0 2.963 2.963 0 001.614-1.614 2.963 2.963 0 000-2.282 38.431 38.431 0 01-2.94-14.781c0-5.098.99-10.071 2.94-14.781a2.985 2.985 0 00-1.614-3.896zm23.826 13.028a2.176 2.176 0 00-.587 1.796 2.193 2.193 0 003.91 1.047c.227-.295.37-.641.426-1.005l-3.748-1.837zm5.334 2.616a3.913 3.913 0 01-6.13 1.996 3.883 3.883 0 01-1.495-2.591 3.88 3.88 0 01.707-2.798l-4.74-2.323-.323 2.454a.86.86 0 01-1.704-.224l.4-3.029L27.26 15.52a4.684 4.684 0 01-.346 1.468c-3.772 9.108-3.772 19.14 0 28.247.132.317.224.64.283.964l2.207-1.047a3.885 3.885 0 01-.806-1.913 3.883 3.883 0 011.117-3.28 3.88 3.88 0 012.248-1.106 3.884 3.884 0 012.89.775 3.902 3.902 0 011.437 2.258l10.247-4.86-.405-.978a.86.86 0 111.588-.657l.372.897 10.94-5.189-6.16-3.02z"/><path d="M21.373 39.36a.859.859 0 110 0zM21.959 41.794c.446 1.63 1 3.25 1.647 4.812a.86.86 0 01-1.588.657 42.385 42.385 0 01-1.717-5.015.86.86 0 111.658-.454zM42.351 35.432a3.918 3.918 0 01-5.481.722 3.914 3.914 0 01-.382-5.869 3.918 3.918 0 015.142-.334 3.914 3.914 0 01.721 5.481zm-1.767-4.117a2.195 2.195 0 00-3.072.404 2.193 2.193 0 00.405 3.071 2.195 2.195 0 003.07-.404 2.193 2.193 0 00-.404-3.071zM34.635 28.032a3.918 3.918 0 01-5.481.722 3.883 3.883 0 01-1.497-2.592 3.884 3.884 0 011.114-3.277 3.918 3.918 0 015.142-.334 3.914 3.914 0 01.722 5.48zm-1.768-4.118a2.195 2.195 0 00-3.072.404 2.177 2.177 0 00-.434 1.62c.077.58.374 1.095.839 1.452a2.195 2.195 0 003.071-.405 2.193 2.193 0 00-.404-3.071zM33.144 34.557l-1.622 2.113a.86.86 0 11-1.363-1.046l1.622-2.113a.86.86 0 011.364 1.046zM27.713 31.02l1.088 1.418a.86.86 0 11-1.363 1.046l-1.089-1.418a.86.86 0 011.364-1.046z"/></g><defs><clipPath id="qclip0_0_172"><path fill="#fff" transform="scale(1 -1) rotate(45 90.669 6.444)" d="M0 0h44v44H0z"/></clipPath></defs></svg><svg fill="none" viewBox="0 0 35 37" id="resturent" xmlns="http://www.w3.org/2000/svg"><g clip-path="url(#rclip0_0_410)"><path d="M26.688 32.188h-3.063v-8.79a1.904 1.904 0 001.392-2.546l-1.392-3.621v-6.919a.437.437 0 00-.438-.437H4.813a.437.437 0 00-.437.438v6.918l-1.392 3.62A1.902 1.902 0 004.375 23.4v8.788H1.312a.437.437 0 00-.437.438v3.063a.437.437 0 00.438.437h25.375a.437.437 0 00.437-.438v-3.062a.437.437 0 00-.438-.438zm-4.813 0v-9.332a1.9 1.9 0 00.875.516v8.816h-.875zm-3.5.437v2.625h-1.75v-3.063h.875a.438.438 0 00.438-.437v-1.313A.438.438 0 0017.5 30h-2.625a.438.438 0 00-.438.438v1.312a.438.438 0 00.438.438h.875v3.062H14v-2.625a.437.437 0 00-.438-.438h-.874v-1.312a.437.437 0 00-.438-.438h-.875v-7.04a1.902 1.902 0 001.081-.651 1.883 1.883 0 001.467.692h.154a1.885 1.885 0 001.467-.692c.063.076.132.147.206.213v1.354a2.19 2.19 0 00-2.188 2.187.437.437 0 00.438.438h4.375a.437.437 0 00.438-.438 2.19 2.19 0 00-2.188-2.188v-.914c.127.026.257.04.387.04h.136a1.901 1.901 0 001.484-.712 1.896 1.896 0 001.486.712h.085c.275 0 .547-.059.797-.173v7.172h-.875a.437.437 0 00-.438.438v1.313h-.875a.437.437 0 00-.437.437zm-3.063-1.313v-.437h1.75v.438h-1.75zM6.806 21.265l.966-3.515h1.776l-.652 3.952a1.024 1.024 0 01-1.013.86h-.085a1.028 1.028 0 01-.992-1.297zm.195 2c.25.114.522.173.797.172h.085a1.895 1.895 0 001.486-.712 1.899 1.899 0 001.132.68v2.22H7v-2.36zm3.852-.703a1.026 1.026 0 01-1.014-1.194l.596-3.618h1.791l-.21 3.841a1.027 1.027 0 01-1.027.971h-.136zm3.971-.32a1.017 1.017 0 01-.746.32h-.154a1.026 1.026 0 01-1.026-1.08l.204-3.732h1.797l.205 3.729v.002a1.014 1.014 0 01-.28.76zm1.163-.65l-.211-3.842h1.791l.596 3.618a1.029 1.029 0 01-1.014 1.195h-.136a1.027 1.027 0 01-1.026-.972zm.639 3.596a1.314 1.314 0 011.238.875h-3.35a1.315 1.315 0 011.237-.875h.875zm4.395-3.03a1.02 1.02 0 01-.817.404h-.085a1.024 1.024 0 01-1.013-.86l-.652-3.952h1.776l.965 3.513v.002a1.023 1.023 0 01-.174.893zm-.457 9.154H21v.875h-.438v-.874zM24.2 21.166a1.028 1.028 0 11-1.95.641l-1.115-4.057h1.751l1.314 3.416zM5.25 10.75h17.5v6.125H5.25V10.75zM3.911 22.117a1.014 1.014 0 01-.112-.951l1.314-3.416h1.75L5.75 21.807a1.03 1.03 0 01-1.47.639 1.013 1.013 0 01-.368-.33zm1.339 1.255a1.9 1.9 0 00.875-.516v9.331H5.25v-8.815zm3.5 11.878h-7v-2.188h7v2.188zm.438-3.063H7V26.5h3.5v8.75h-.875v-2.625a.437.437 0 00-.438-.438zm2.187-.874h.438v1.312a.437.437 0 00.437.438h.875v2.187h-1.75v-3.938zM26.25 35.25h-7v-2.188h7v2.188z" fill="url(#rpaint0_linear_0_410)"/><path d="M17.063 14.25h-.475a2.63 2.63 0 00-2.15-2.15v-.475a.438.438 0 00-.876 0v.475a2.63 2.63 0 00-2.15 2.15h-.475a.438.438 0 00-.437.438 1.752 1.752 0 001.75 1.75h3.5a1.752 1.752 0 001.75-1.75.438.438 0 00-.438-.438zM14 12.937a1.753 1.753 0 011.695 1.313h-3.39A1.753 1.753 0 0114 12.937zm1.75 2.626h-3.5a.875.875 0 01-.758-.438h5.016a.876.876 0 01-.758.438z" fill="url(#rpaint1_linear_0_410)"/><path d="M10.743 13.302a.437.437 0 00.194-.364v-1.313h-.874v1.063a1.93 1.93 0 01-.438.16v-1.223H8.75v1.223a1.93 1.93 0 01-.438-.16v-1.063h-.874v1.313a.437.437 0 00.194.364c.337.224.718.373 1.118.437v2.698h.875V13.74c.4-.064.781-.213 1.118-.438z" fill="url(#rpaint2_linear_0_410)"/><path d="M18.812 11.188a1.75 1.75 0 00-.437 3.444v1.806h.875v-1.806a1.75 1.75 0 00-.438-3.444zm0 2.624a.874.874 0 110-1.748.874.874 0 010 1.748z" fill="url(#rpaint3_linear_0_410)"/></g><ellipse opacity=".15" cx="22.097" cy="12.5" rx="12.097" ry="12.5" fill="url(#rpaint4_linear_0_410)"/><defs><linearGradient id="rpaint0_linear_0_410" x1=".875" y1="22.125" x2="26.496" y2="22.239" gradientUnits="userSpaceOnUse"><stop stop-color="#FF5050"/><stop offset="1" stop-color="#FF7070" stop-opacity=".84"/></linearGradient><linearGradient id="rpaint1_linear_0_410" x1="10.5" y1="13.637" x2="17.332" y2="13.678" gradientUnits="userSpaceOnUse"><stop stop-color="#FF5050"/><stop offset="1" stop-color="#FF7070" stop-opacity=".84"/></linearGradient><linearGradient id="rpaint2_linear_0_410" x1="7.438" y1="13.871" x2="10.854" y2="13.882" gradientUnits="userSpaceOnUse"><stop stop-color="#FF5050"/><stop offset="1" stop-color="#FF7070" stop-opacity=".84"/></linearGradient><linearGradient id="rpaint3_linear_0_410" x1="17.062" y1="13.637" x2="20.479" y2="13.648" gradientUnits="userSpaceOnUse"><stop stop-color="#FF5050"/><stop offset="1" stop-color="#FF7070" stop-opacity=".84"/></linearGradient><linearGradient id="rpaint4_linear_0_410" x1="10" y1="11.667" x2="33.614" y2="11.769" gradientUnits="userSpaceOnUse"><stop stop-color="#FF7070"/><stop offset="1" stop-color="#FF7070" stop-opacity=".65"/></linearGradient><clipPath id="rclip0_0_410"><path fill="#fff" transform="translate(0 9)" d="M0 0h28v28H0z"/></clipPath></defs></svg><svg viewBox="0 0 34 34" id="right-arrow" xmlns="http://www.w3.org/2000/svg"><g clip-path="url(#sclip0_0_362)"><path d="M34 17c0-9.374-7.626-17-17-17C7.626 0 0 7.626 0 17c0 9.374 7.627 17 17 17 9.373 0 17-7.626 17-17zM2.634 17C2.634 9.08 9.078 2.634 17 2.634S31.366 9.079 31.366 17c0 7.922-6.444 14.366-14.366 14.366S2.634 24.921 2.634 17z"/><path d="M15.183 24.519l6.584-6.584c.51-.514.51-1.343 0-1.857l-6.584-6.584a1.316 1.316 0 00-1.857 1.857L18.976 17l-5.65 5.662a1.316 1.316 0 000 1.857 1.316 1.316 0 001.857 0z"/></g><defs><clipPath id="sclip0_0_362"><path fill="#fff" transform="rotate(90 17 17)" d="M0 0h34v34H0z"/></clipPath></defs></svg><svg viewBox="0 0 44 44" id="sandwich" xmlns="http://www.w3.org/2000/svg"><g clip-path="url(#tclip0_0_263)"><path d="M41.8 6.6h-1.467V5.133a2.2 2.2 0 00-2.2-2.2h-1.747L35.326.811A1.457 1.457 0 0034.012 0H33c-.81 0-1.467.657-1.467 1.467v1.466h-8.066a2.2 2.2 0 00-2.2 2.2V6.6H19.8a2.2 2.2 0 00-2.2 2.2v1.467c0 .81.657 1.466 1.467 1.466h.077l.858 7.577-3.533-.83a11.096 11.096 0 00-.576-.813L14.646 12.3a.733.733 0 00-.713-.568H9.72C7.73 9.981 5.382 9.19 3.61 9.711L2.532 8.537a1.448 1.448 0 00-1.605-.366c-.56.216-.93.755-.928 1.355v32.289A2.188 2.188 0 002.185 44h35.948c.373 0 .686-.28.728-.65l3.593-31.617h.08c.81 0 1.466-.657 1.466-1.466V8.8a2.2 2.2 0 00-2.2-2.2zM33 1.467h1.013l.734 1.466H33V1.467zM22.733 5.133c0-.405.329-.733.734-.733h14.666c.405 0 .734.328.734.733V6.6H22.733V5.133zm-2.053 15.84l.046.009.593.14.397 4.162a6.758 6.758 0 00-3.94-1.242 6.28 6.28 0 00-.411-3.848l3.315.78zm1.433 6.487l.01.008c.265.245.517.505.755.778a8.685 8.685 0 011.876 3.388c.124.437.188.89.19 1.344l-6.849-7.47c1.523.17 2.942.86 4.018 1.952zm-7.728-9.32v-.002c1.583 1.819 2.32 4.003 1.97 5.472l-7.463-8.137c1.505-.336 3.795.721 5.493 2.667zm-1.038-4.94l.586 2.497a9.342 9.342 0 00-1.913-1.154 11.558 11.558 0 00-.928-1.343h2.255zm-3.687.546h.003c.061.07.11.146.17.22a3.99 3.99 0 00-2.012.338l-3.015-3.288c1.474.021 3.398 1.058 4.854 2.73zm21.077 28.356a.716.716 0 01-.656.431H2.185a.719.719 0 01-.718-.718L1.453 9.533l14.72 16.048v.004l8.644 9.424.01.011 4.741 5.172c.017.022.034.044.053.065l.984 1.072a.716.716 0 01.132.773zm-4.54-7.757c.135-.438.203-.894.203-1.352.385.325.744.68 1.074 1.061.41.468.773.975 1.086 1.513.428.72.73 1.507.895 2.329l-3.257-3.551zm11.281 8.188h-5.342c.275-.76.1-1.61-.45-2.2l-.74-.806a6.691 6.691 0 00-.571-3.594h7.854l-.75 6.6zm.917-8.066h-8.8a11.218 11.218 0 00-1.009-1.375 10.69 10.69 0 00-2.512-2.136 10.145 10.145 0 00-2.09-3.676c-.22-.25-.44-.482-.671-.706l-.58-6.11a.733.733 0 00-.56-.644l-.65-.154-.154-1.333h18.86l-1.834 16.134zm2-17.6H21.203l-.58-5.134h20.357l-.583 5.134zm2.138-6.6H19.067V8.8c0-.405.328-.733.733-.733h22c.405 0 .733.328.733.733v1.467z"/><path d="M31.1 32.267c.042 0 .083-.006.124-.008.011 0 .023.008.034.008a.704.704 0 00.109-.016 3.966 3.966 0 002.899-1.568 5.1 5.1 0 00.714-4.474c-.102-.38-.195-.753-.285-1.113-.572-2.293-1.119-4.456-3.435-4.553-.024 0-.046-.004-.07-.004-.023 0-.057-.006-.09-.006-2.591 0-4.7 2.632-4.7 5.867s2.109 5.867 4.7 5.867zm.568-10.157c.758.298 1.092 1.291 1.604 3.341.092.367.187.751.293 1.14a3.656 3.656 0 01-.464 3.2 2.592 2.592 0 01-.876.734 10.656 10.656 0 00-.733-3.68c-.073-.23-.147-.45-.211-.66-.427-1.389.073-3.188.387-4.075zm-1.576.11a8.049 8.049 0 00-.212 4.393c.068.22.143.448.22.685.367 1.12.807 2.472.627 3.468-1.607-.25-2.86-2.112-2.86-4.366 0-1.947.935-3.6 2.225-4.18zM3.881 38.563l-.518.518A.733.733 0 104.4 40.118l.518-.518a.733.733 0 00-1.037-1.037zM10.893 33.626a.734.734 0 00-1.038-1.037l-.518.518a.733.733 0 101.037 1.038l.519-.519zM4.4 31.748l-.519.519a.733.733 0 101.037 1.037l.519-.519A.733.733 0 004.4 31.748zM4.4 26.615l-.519.518a.733.733 0 101.037 1.037l.519-.518A.733.733 0 004.4 26.615zM11 38.563l-.518.518a.733.733 0 101.037 1.037l.518-.518A.733.733 0 0011 38.563zM16.348 38.563l-.518.519a.734.734 0 101.037 1.036l.518-.518a.733.733 0 00-1.037-1.037z"/></g><defs><clipPath id="tclip0_0_263"><path fill="#fff" d="M0 0h44v44H0z"/></clipPath></defs></svg><svg fill="none" viewBox="0 0 21 21" id="search" xmlns="http://www.w3.org/2000/svg"><ellipse cx="9.767" cy="9.841" rx="8.989" ry="8.884" stroke="#363853" stroke-width="1.5" stroke-linecap="round" stroke-linejoin="round"/><path d="M16.018 16.481l3.524 3.474" stroke="#363853" stroke-width="1.5" stroke-linecap="round" stroke-linejoin="round"/></svg><svg viewBox="0 0 8.333 15.649" id="star_half_rating" xmlns="http://www.w3.org/2000/svg"><path d="M8.327 13.522a1.032 1.032 0 00-.46.125l-3.7 1.91a.97.97 0 01-1.248-.38.902.902 0 01-.096-.572l.739-4.06a.902.902 0 00-.268-.802L.274 6.852A.893.893 0 01.258 5.58l.014-.014a.949.949 0 01.527-.26l4.171-.608a.902.902 0 00.697-.494L7.481.464A.924.924 0 018.333 0c-.006.245-.006 13.355-.006 13.521z"/></svg><svg viewBox="0 0 16.667 15.649" id="star_rating" xmlns="http://www.w3.org/2000/svg"><path d="M9.147.505l1.855 3.686a.926.926 0 00.699.493l4.167.6c.244.034.465.161.614.355.147.19.21.433.175.671a.913.913 0 01-.268.521l-3.02 2.893a.864.864 0 00-.267.794l.743 4.068a.92.92 0 01-.743 1.047.985.985 0 01-.595-.094l-3.718-1.914a.984.984 0 00-.877 0l-3.718 1.914a.958.958 0 01-1.277-.368.922.922 0 01-.096-.576l.743-4.069a.868.868 0 00-.267-.794L.277 6.84a.886.886 0 01-.024-1.262l.024-.024a.903.903 0 01.535-.26l4.167-.6c.3-.043.561-.226.699-.495L7.467.505A.924.924 0 018.314 0h.112a.93.93 0 01.72.505z"/></svg><svg fill="none" viewBox="0 0 40.036 34" id="timer" xmlns="http://www.w3.org/2000/svg"><defs><linearGradient id="xb" x1="0" y1="15.942" x2="33.181" y2="17" gradientUnits="userSpaceOnUse"><stop stop-color="#FF7D3D"/><stop offset="1" stop-color="#F99462" stop-opacity=".71"/></linearGradient><linearGradient id="xc" x1="18.722" y1="18.334" x2="26.559" y2="18.602" gradientUnits="userSpaceOnUse"><stop stop-color="#FF7D3D"/><stop offset="1" stop-color="#F99462" stop-opacity=".71"/></linearGradient><linearGradient id="xd" x1="20.572" y1="10.785" x2="21.868" y2="10.83" gradientUnits="userSpaceOnUse"><stop stop-color="#FF7D3D"/><stop offset="1" stop-color="#F99462" stop-opacity=".71"/></linearGradient><linearGradient id="xe" x1="20.572" y1="29.332" x2="21.868" y2="29.377" gradientUnits="userSpaceOnUse"><stop stop-color="#FF7D3D"/><stop offset="1" stop-color="#F99462" stop-opacity=".71"/></linearGradient><linearGradient id="xf" x1="14.014" y1="13.501" x2="15.31" y2="13.545" gradientUnits="userSpaceOnUse"><stop stop-color="#FF7D3D"/><stop offset="1" stop-color="#F99462" stop-opacity=".71"/></linearGradient><linearGradient id="xg" x1="27.13" y1="26.616" x2="28.426" y2="26.661" gradientUnits="userSpaceOnUse"><stop stop-color="#FF7D3D"/><stop offset="1" stop-color="#F99462" stop-opacity=".71"/></linearGradient><linearGradient id="xh" x1="14.014" y1="26.616" x2="15.31" y2="26.661" gradientUnits="userSpaceOnUse"><stop stop-color="#FF7D3D"/><stop offset="1" stop-color="#F99462" stop-opacity=".71"/></linearGradient><linearGradient id="xi" x1="11.298" y1="20.059" x2="12.595" y2="20.103" gradientUnits="userSpaceOnUse"><stop stop-color="#FF7D3D"/><stop offset="1" stop-color="#F99462" stop-opacity=".71"/></linearGradient><linearGradient id="xj" x1="29.846" y1="20.059" x2="31.142" y2="20.103" gradientUnits="userSpaceOnUse"><stop stop-color="#FF7D3D"/><stop offset="1" stop-color="#F99462" stop-opacity=".71"/></linearGradient><linearGradient id="xk" x1="0" y1="24.323" x2="1.296" y2="24.368" gradientUnits="userSpaceOnUse"><stop stop-color="#FF7D3D"/><stop offset="1" stop-color="#F99462" stop-opacity=".71"/></linearGradient><linearGradient id="xl" x1="23.205" y1="14.077" x2="30.606" y2="14.33" gradientUnits="userSpaceOnUse"><stop stop-color="#FF7D3D"/><stop offset="1" stop-color="#F99462" stop-opacity=".71"/></linearGradient><linearGradient id="xm" x1="14" y1="12.6" x2="39.408" y2="13.5" gradientUnits="userSpaceOnUse"><stop stop-color="#F99462"/><stop offset="1" stop-color="#F99462" stop-opacity=".651"/></linearGradient><clipPath id="xa"><path fill="#fff" d="M0 0h34v34H0z"/></clipPath></defs><g clip-path="url(#xa)"><path d="M31.754 12.881l.996-.996c.288-.288.447-.67.447-1.078 0-.407-.159-.79-.447-1.078l-1.14-1.14a1.514 1.514 0 00-1.078-.447c-.407 0-.79.159-1.078.447l-.996.996a12.7 12.7 0 00-4.412-1.933V6.179h.606a1.49 1.49 0 001.488-1.488v-2.07a1.49 1.49 0 00-1.488-1.489H17.8a1.49 1.49 0 00-1.488 1.489v2.07c0 .82.668 1.488 1.488 1.488h.606v1.477a12.703 12.703 0 00-4.392 1.929l-.996-.996a1.514 1.514 0 00-1.078-.447c-.407 0-.79.159-1.078.447l-1.14 1.14a1.526 1.526 0 000 2.156l.176.177H5.19a.664.664 0 000 1.328h5.193a12.717 12.717 0 00-1.215 2.552H.664a.664.664 0 000 1.328H8.79a12.746 12.746 0 00-.314 2.553H4.25a.664.664 0 000 1.328h4.265c.072.879.233 1.733.474 2.552H3.32a.664.664 0 000 1.329h6.142c1.932 4.598 6.482 7.835 11.774 7.835C28.274 32.867 34 27.142 34 20.104c0-2.679-.83-5.167-2.246-7.222zm-1.36-3.353a.192.192 0 01.138-.058c.037 0 .091.01.139.058l1.14 1.14a.193.193 0 01.058.14c0 .036-.01.09-.058.138l-.873.873c-.435-.509-.91-.983-1.418-1.418l.873-.873zM17.64 4.69v-2.07a.16.16 0 01.16-.16h6.852a.16.16 0 01.16.16v2.07a.16.16 0 01-.16.16H17.8a.16.16 0 01-.16-.16zm2.095 1.488h2.983v1.247a12.846 12.846 0 00-2.983.002V6.179zm-9.075 4.49l1.141-1.141a.192.192 0 01.139-.058c.037 0 .091.01.139.058l.873.873c-.51.435-.983.91-1.418 1.418l-.874-.873a.196.196 0 010-.277zm10.576 20.87C14.93 31.54 9.8 26.41 9.8 20.103S14.93 8.667 21.236 8.667s11.436 5.13 11.436 11.436-5.13 11.436-11.436 11.436z" fill="url(#xb)"/><path d="M25.619 14.781l-3.14 3.14a2.498 2.498 0 00-1.243-.332 2.517 2.517 0 00-2.514 2.514 2.517 2.517 0 002.514 2.514 2.516 2.516 0 002.514-2.514c0-.452-.121-.877-.331-1.244l3.139-3.139a.664.664 0 00-.94-.939zm-4.383 6.508a1.187 1.187 0 010-2.371c.654 0 1.185.532 1.185 1.185 0 .654-.531 1.186-1.185 1.186z" fill="url(#xc)"/><path d="M21.236 11.494a.669.669 0 00.47-.195.67.67 0 00.194-.47.669.669 0 00-.194-.469.669.669 0 00-.47-.194.67.67 0 00-.47.194.668.668 0 00.47 1.134z" fill="url(#xd)"/><path d="M21.236 28.713a.67.67 0 00-.47.194.668.668 0 00.47 1.134.666.666 0 00.47-1.134.669.669 0 00-.47-.194z" fill="url(#xe)"/><path d="M14.678 12.881a.67.67 0 00-.47.195.67.67 0 00-.194.47.67.67 0 00.195.47.669.669 0 00.939 0 .671.671 0 00.194-.47.669.669 0 00-.664-.664z" fill="url(#xf)"/><path d="M27.794 25.997a.67.67 0 00-.47.194.668.668 0 000 .94.668.668 0 001.134-.47.669.669 0 00-.664-.664z" fill="url(#xg)"/><path d="M14.678 25.997a.669.669 0 00-.47.194.669.669 0 00-.194.47.669.669 0 00.664.664.668.668 0 00.664-.664.669.669 0 00-.664-.664z" fill="url(#xh)"/><path d="M11.963 19.439a.668.668 0 00-.665.664.667.667 0 00.665.664.666.666 0 00.664-.664.67.67 0 00-.195-.47.67.67 0 00-.47-.194z" fill="url(#xi)"/><path d="M30.98 19.634a.668.668 0 00-1.134.47.668.668 0 00.664.663.67.67 0 00.47-.194.67.67 0 00.194-.47.67.67 0 00-.195-.47z" fill="url(#xj)"/><path d="M.664 23.704a.668.668 0 00-.47.194.67.67 0 00-.194.47.67.67 0 00.195.47.67.67 0 00.47.194.669.669 0 00.468-.195.67.67 0 00.195-.47.67.67 0 00-.195-.47.668.668 0 00-.469-.193z" fill="url(#xk)"/><path d="M30.314 18.087a.664.664 0 00.447-.826 9.964 9.964 0 00-6.704-6.69.664.664 0 00-.376 1.274 8.576 8.576 0 015.807 5.795.664.664 0 00.826.447z" fill="url(#xl)"/></g><path d="M14 13.5C14 6.044 19.828 0 27.018 0s13.018 6.044 13.018 13.5S34.207 27 27.018 27C19.828 27 14 20.956 14 13.5z" fill-rule="evenodd" fill="url(#xm)" opacity=".35"/></svg><svg fill="none" viewBox="0 0 22 22" id="timer_restaurant" xmlns="http://www.w3.org/2000/svg"><g fill="#363853" opacity=".9"><path d="M11.575 2.54v-.959a.611.611 0 00-1.222 0v.965c-4.803.333-8.609 4.344-8.609 9.23 0 5.102 4.153 9.254 9.256 9.254 5.103 0 9.256-4.152 9.256-9.255 0-4.91-3.845-8.937-8.681-9.235zM11 19.808c-4.43 0-8.033-3.604-8.033-8.033 0-4.43 3.603-8.033 8.033-8.033s8.033 3.604 8.033 8.033c0 4.429-3.603 8.033-8.033 8.033z"/><path d="M7.863 17.322a6.39 6.39 0 01-3.234-5.547.305.305 0 10-.611 0 7.004 7.004 0 003.544 6.079.306.306 0 00.3-.532zM9.53 18.16a6.839 6.839 0 01-.353-.102.305.305 0 00-.186.582c.127.04.255.078.385.11a.305.305 0 00.153-.59zM18.885 5.728a.611.611 0 00.863-.865L18.162 3.28a.61.61 0 10-.863.865l1.586 1.583zM11.575 11.661V6.776a.611.611 0 00-1.223 0v5.15c0 .168.088.328.21.443l1.789 1.672a.61.61 0 00.657.117.61.61 0 00.164-1.006l-1.597-1.49z"/></g></svg><svg fill="none" viewBox="0 0 39 39" id="twitter" xmlns="http://www.w3.org/2000/svg"><circle cx="19.5" cy="19.5" r="19.5" fill="#EEEEEF"/><path d="M29.763 13.27a8.434 8.434 0 01-2.422.652 4.195 4.195 0 001.85-2.32 8.304 8.304 0 01-2.67 1.017 4.197 4.197 0 00-3.073-1.33 4.205 4.205 0 00-4.206 4.209c0 .326.04.651.104.964a11.954 11.954 0 01-8.673-4.403 4.177 4.177 0 00-.573 2.124c0 1.46.743 2.748 1.875 3.506a4.243 4.243 0 01-1.902-.536v.052a4.207 4.207 0 003.372 4.13 4.457 4.457 0 01-1.107.142c-.274 0-.533-.027-.795-.064a4.214 4.214 0 003.933 2.919 8.431 8.431 0 01-5.223 1.798c-.353 0-.678-.012-1.016-.052a11.911 11.911 0 006.46 1.887c7.736 0 11.97-6.409 11.97-11.971 0-.183 0-.365-.013-.548a9.058 9.058 0 002.11-2.176z" fill="#363853"/></svg></svg>