<svg width="135.000000" height="40.000000" viewBox="0 0 135 40" fill="none" xmlns="http://www.w3.org/2000/svg" xmlns:xlink="http://www.w3.org/1999/xlink">
	<desc>
			Created with Pixso.
	</desc>
	<defs>
		<filter id="filter_41_10_dd" x="9.972992" y="7.140869" width="23.089752" height="25.720825" filterUnits="userSpaceOnUse" color-interpolation-filters="sRGB">
			<feFlood flood-opacity="0" result="BackgroundImageFix"/>
			<feBlend mode="normal" in="SourceGraphic" in2="BackgroundImageFix" result="shape"/>
			<feColorMatrix in="SourceAlpha" type="matrix" values="0 0 0 0 0 0 0 0 0 0 0 0 0 0 0 0 0 0 127 0" result="hardAlpha"/>
			<feOffset dx="0" dy="-0.15"/>
			<feGaussianBlur stdDeviation="0"/>
			<feComposite in2="hardAlpha" operator="arithmetic" k2="-1" k3="1"/>
			<feColorMatrix type="matrix" values="0 0 0 0 0 0 0 0 0 0 0 0 0 0 0 0 0 0 0.12 0"/>
			<feBlend mode="normal" in2="shape" result="effect_innerShadow_1"/>
			<feColorMatrix in="SourceAlpha" type="matrix" values="0 0 0 0 0 0 0 0 0 0 0 0 0 0 0 0 0 0 127 0" result="hardAlpha"/>
			<feOffset dx="0" dy="0.15"/>
			<feGaussianBlur stdDeviation="0"/>
			<feComposite in2="hardAlpha" operator="arithmetic" k2="-1" k3="1"/>
			<feColorMatrix type="matrix" values="0 0 0 0 1 0 0 0 0 1 0 0 0 0 1 0 0 0 0.25 0"/>
			<feBlend mode="normal" in2="effect_innerShadow_1" result="effect_innerShadow_2"/>
		</filter>
		<filter id="filter_41_8_dd" x="10.436005" y="20.000977" width="16.686005" height="12.860718" filterUnits="userSpaceOnUse" color-interpolation-filters="sRGB">
			<feFlood flood-opacity="0" result="BackgroundImageFix"/>
			<feBlend mode="normal" in="SourceGraphic" in2="BackgroundImageFix" result="shape"/>
			<feColorMatrix in="SourceAlpha" type="matrix" values="0 0 0 0 0 0 0 0 0 0 0 0 0 0 0 0 0 0 127 0" result="hardAlpha"/>
			<feOffset dx="0" dy="-0.15"/>
			<feGaussianBlur stdDeviation="0"/>
			<feComposite in2="hardAlpha" operator="arithmetic" k2="-1" k3="1"/>
			<feColorMatrix type="matrix" values="0 0 0 0 0 0 0 0 0 0 0 0 0 0 0 0 0 0 0.078 0"/>
			<feBlend mode="normal" in2="shape" result="effect_innerShadow_1"/>
		</filter>
		<clipPath id="clip0_545">
			<rect id="Store=Google Play, Style=Black" rx="2.500000" width="134.000000" height="39.000000" transform="translate(0.500000 0.500000)" fill="white"/>
		</clipPath>
		<linearGradient id="paint_linear_41_6_0" x1="21.800789" y1="8.708854" x2="5.018793" y2="25.490860" gradientUnits="userSpaceOnUse">
			<stop stop-color="#00A0FF"/>
			<stop offset="0.006600" stop-color="#00A1FF"/>
			<stop offset="0.260100" stop-color="#00BEFF"/>
			<stop offset="0.512200" stop-color="#00D2FF"/>
			<stop offset="0.760400" stop-color="#00DFFF"/>
			<stop offset="1.000000" stop-color="#00E3FF"/>
		</linearGradient>
		<linearGradient id="paint_linear_41_7_0" x1="33.833488" y1="20.000854" x2="9.637589" y2="20.000854" gradientUnits="userSpaceOnUse">
			<stop stop-color="#FFE000"/>
			<stop offset="0.408700" stop-color="#FFBD00"/>
			<stop offset="0.775400" stop-color="#FFA500"/>
			<stop offset="1.000000" stop-color="#FF9C00"/>
		</linearGradient>
		<linearGradient id="paint_linear_41_8_0" x1="24.828102" y1="22.294880" x2="2.069613" y2="45.053375" gradientUnits="userSpaceOnUse">
			<stop stop-color="#FF3A44"/>
			<stop offset="1.000000" stop-color="#C31162"/>
		</linearGradient>
		<linearGradient id="paint_linear_41_9_0" x1="7.297404" y1="0.176745" x2="17.459707" y2="10.339044" gradientUnits="userSpaceOnUse">
			<stop stop-color="#32A071"/>
			<stop offset="0.068500" stop-color="#2DA771"/>
			<stop offset="0.476200" stop-color="#15CF74"/>
			<stop offset="0.800900" stop-color="#06E775"/>
			<stop offset="1.000000" stop-color="#00F076"/>
		</linearGradient>
	</defs>
	<rect id="Store=Google Play, Style=Black" rx="2.500000" width="134.000000" height="39.000000" transform="translate(0.500000 0.500000)" fill="#000000"/>
	<g clip-path="url(#clip0_545)">
		<path id="Google Play" d="M68.136 21.7511C65.784 21.7511 63.867 23.5402 63.867 26.0042C63.867 28.4531 65.784 30.2571 68.136 30.2571C70.489 30.2571 72.406 28.4531 72.406 26.0042C72.405 23.5402 70.488 21.7511 68.136 21.7511ZM68.136 28.5831C66.847 28.5831 65.736 27.5201 65.736 26.0051C65.736 24.4741 66.848 23.4271 68.136 23.4271C69.425 23.4271 70.536 24.4741 70.536 26.0051C70.536 27.5192 69.425 28.5831 68.136 28.5831ZM58.822 21.7511C56.47 21.7511 54.553 23.5402 54.553 26.0042C54.553 28.4531 56.47 30.2571 58.822 30.2571C61.175 30.2571 63.092 28.4531 63.092 26.0042C63.092 23.5402 61.175 21.7511 58.822 21.7511ZM58.822 28.5831C57.533 28.5831 56.422 27.5201 56.422 26.0051C56.422 24.4741 57.534 23.4271 58.822 23.4271C60.111 23.4271 61.222 24.4741 61.222 26.0051C61.223 27.5192 60.111 28.5831 58.822 28.5831ZM47.744 23.0571L47.744 24.8611L52.062 24.8611C51.933 25.8761 51.595 26.6171 51.079 27.1321C50.451 27.7601 49.468 28.4531 47.744 28.4531C45.086 28.4531 43.008 26.3101 43.008 23.6521C43.008 20.9941 45.086 18.8511 47.744 18.8511C49.178 18.8511 50.225 19.4152 50.998 20.1401L52.271 18.8671C51.191 17.8361 49.758 17.0471 47.744 17.0471C44.103 17.0471 41.042 20.0111 41.042 23.6521C41.042 27.2931 44.103 30.2571 47.744 30.2571C49.709 30.2571 51.192 29.6121 52.351 28.4042C53.543 27.2122 53.914 25.5361 53.914 24.1831C53.914 23.7651 53.882 23.3782 53.817 23.0562L47.744 23.0562L47.744 23.0571ZM93.052 24.4581C92.698 23.5082 91.618 21.7511 89.411 21.7511C87.22 21.7511 85.399 23.4751 85.399 26.0042C85.399 28.3881 87.204 30.2571 89.62 30.2571C91.569 30.2571 92.697 29.0651 93.165 28.3721L91.715 27.4052C91.232 28.1141 90.571 28.5812 89.62 28.5812C88.67 28.5812 87.993 28.1461 87.558 27.2921L93.245 24.9401L93.052 24.4581ZM87.252 25.8761C87.204 24.2322 88.525 23.3951 89.476 23.3951C90.217 23.3951 90.845 23.7661 91.055 24.2971L87.252 25.8761ZM82.629 30.0001L84.497 30.0001L84.497 17.4991L82.629 17.4991L82.629 30.0001ZM79.567 22.7021L79.503 22.7021C79.084 22.2021 78.278 21.7511 77.264 21.7511C75.137 21.7511 73.188 23.6201 73.188 26.0211C73.188 28.4052 75.137 30.2582 77.264 30.2582C78.279 30.2582 79.084 29.8071 79.503 29.2921L79.567 29.2921L79.567 29.9042C79.567 31.5311 78.697 32.4011 77.296 32.4011C76.152 32.4011 75.443 31.5801 75.153 30.8871L73.526 31.5641C73.993 32.6912 75.233 34.0771 77.296 34.0771C79.487 34.0771 81.34 32.7881 81.34 29.6461L81.34 22.0101L79.568 22.0101L79.568 22.7021L79.567 22.7021ZM77.425 28.5831C76.136 28.5831 75.057 27.5032 75.057 26.0211C75.057 24.5221 76.136 23.4271 77.425 23.4271C78.697 23.4271 79.696 24.5221 79.696 26.0211C79.696 27.5032 78.697 28.5831 77.425 28.5831ZM101.806 17.4991L97.335 17.4991L97.335 30.0001L99.2 30.0001L99.2 25.2642L101.805 25.2642C103.873 25.2642 105.907 23.7671 105.907 21.3821C105.907 18.9971 103.874 17.4991 101.806 17.4991ZM101.854 23.5242L99.2 23.5242L99.2 19.2391L101.854 19.2391C103.249 19.2391 104.041 20.3942 104.041 21.3821C104.041 22.3501 103.249 23.5242 101.854 23.5242ZM113.386 21.7291C112.035 21.7291 110.636 22.3241 110.057 23.6431L111.713 24.3341C112.067 23.6431 112.727 23.4171 113.418 23.4171C114.383 23.4171 115.364 23.9961 115.38 25.0251L115.38 25.1542C115.042 24.9611 114.318 24.6721 113.434 24.6721C111.649 24.6721 109.831 25.6531 109.831 27.4861C109.831 29.1592 111.295 30.2361 112.935 30.2361C114.189 30.2361 114.881 29.6731 115.315 29.0131L115.379 29.0131L115.379 29.9781L117.181 29.9781L117.181 25.1852C117.182 22.9672 115.524 21.7291 113.386 21.7291ZM113.16 28.5801C112.55 28.5801 111.697 28.2742 111.697 27.5181C111.697 26.5531 112.759 26.1831 113.676 26.1831C114.495 26.1831 114.882 26.3601 115.38 26.6011C115.235 27.7601 114.238 28.5801 113.16 28.5801ZM123.743 22.0021L121.604 27.4221L121.54 27.4221L119.32 22.0021L117.31 22.0021L120.639 29.5771L118.741 33.7911L120.687 33.7911L125.818 22.0021L123.743 22.0021ZM106.937 30.0001L108.802 30.0001L108.802 17.4991L106.937 17.4991L106.937 30.0001Z" fill-rule="nonzero" fill="#FFFFFF"/>
		<path id="Get it on" d="M73.6089 12.225C73.0189 12.8309 72.2859 13.134 71.4089 13.134C70.5319 13.134 69.7989 12.8309 69.2099 12.225C68.6199 11.619 68.3259 10.877 68.3259 10C68.3259 9.12305 68.6199 8.38098 69.2099 7.77502C69.7989 7.16895 70.5319 6.86499 71.4089 6.86499C72.2809 6.86499 73.0129 7.17004 73.6049 7.77893C74.1969 8.38794 74.4929 9.12793 74.4929 10C74.4929 10.877 74.1979 11.619 73.6089 12.225ZM47.4181 10.2429C47.4181 11.0809 47.17 11.7479 46.673 12.246C46.109 12.8379 45.373 13.1339 44.4691 13.1339C43.6031 13.1339 42.8661 12.834 42.261 12.2339C41.6551 11.6329 41.3521 10.8889 41.3521 10.001C41.3521 9.11194 41.6551 8.36792 42.261 7.76794C42.8661 7.16699 43.6031 6.86694 44.4691 6.86694C44.899 6.86694 45.3101 6.95093 45.7 7.11792C46.0911 7.28589 46.4041 7.50891 46.6381 7.78796L46.1111 8.31592C45.7141 7.84094 45.1671 7.604 44.468 7.604C43.8361 7.604 43.29 7.82593 42.829 8.2699C42.368 8.71399 42.1381 9.29089 42.1381 10C42.1381 10.709 42.368 11.2859 42.829 11.73C43.29 12.174 43.8361 12.396 44.468 12.396C45.1381 12.396 45.6971 12.173 46.144 11.726C46.4341 11.4349 46.6021 11.0299 46.647 10.511L44.468 10.511L44.468 9.78992L47.3751 9.78992C47.4051 9.9469 47.4181 10.0979 47.4181 10.2429ZM52.0281 7.73706L49.2961 7.73706L49.2961 9.63904L51.7601 9.63904L51.7601 10.36L49.2961 10.36L49.2961 12.262L52.0281 12.262L52.0281 13L48.5251 13L48.5251 7L52.0281 7L52.0281 7.73706ZM55.279 13L54.508 13L54.508 7.73706L52.832 7.73706L52.832 7L56.955 7L56.955 7.73706L55.279 7.73706L55.279 13ZM59.938 13L59.938 7L60.709 7L60.709 13L59.938 13ZM64.1281 13L63.3571 13L63.3571 7.73706L61.6812 7.73706L61.6812 7L65.8041 7L65.8041 7.73706L64.1281 7.73706L64.1281 13ZM75.575 13L75.575 7L76.5129 7L79.429 11.667L79.4619 11.667L79.429 10.511L79.429 7L80.2 7L80.2 13L79.395 13L76.344 8.10596L76.3109 8.10596L76.344 9.26196L76.344 13L75.575 13ZM69.7789 11.722C70.2229 12.172 70.7659 12.396 71.4089 12.396C72.0519 12.396 72.5959 12.171 73.0389 11.722C73.4829 11.272 73.7059 10.698 73.7059 10C73.7059 9.302 73.4829 8.72803 73.0389 8.27795C72.5959 7.828 72.0519 7.604 71.4089 7.604C70.7659 7.604 70.2229 7.82898 69.7789 8.27795C69.3359 8.72803 69.1129 9.302 69.1129 10C69.1129 10.698 69.3359 11.272 69.7789 11.722Z" fill-rule="evenodd" fill="#FFFFFF"/>
		<path id="Get it on" d="M46.673 12.246C46.109 12.8379 45.373 13.1339 44.4691 13.1339C43.6031 13.1339 42.8661 12.834 42.261 12.2339C41.6551 11.6329 41.3521 10.8889 41.3521 10.001C41.3521 9.11194 41.6551 8.36792 42.261 7.76794C42.8661 7.16699 43.6031 6.86694 44.4691 6.86694C44.899 6.86694 45.3101 6.95093 45.7 7.11792C46.0911 7.28589 46.4041 7.50891 46.6381 7.78796L46.1111 8.31592C45.7141 7.84094 45.1671 7.604 44.468 7.604C43.8361 7.604 43.29 7.82593 42.829 8.2699C42.368 8.71399 42.1381 9.29089 42.1381 10C42.1381 10.709 42.368 11.2859 42.829 11.73C43.29 12.174 43.8361 12.396 44.468 12.396C45.1381 12.396 45.6971 12.173 46.144 11.726C46.4341 11.4349 46.6021 11.0299 46.647 10.511L44.468 10.511L44.468 9.78992L47.3751 9.78992C47.4051 9.9469 47.4181 10.0979 47.4181 10.2429C47.4181 11.0809 47.17 11.7479 46.673 12.246ZM49.2961 7.73706L49.2961 9.63904L51.7601 9.63904L51.7601 10.36L49.2961 10.36L49.2961 12.262L52.0281 12.262L52.0281 13L48.5251 13L48.5251 7L52.0281 7L52.0281 7.73706L49.2961 7.73706ZM54.508 13L54.508 7.73706L52.832 7.73706L52.832 7L56.955 7L56.955 7.73706L55.279 7.73706L55.279 13L54.508 13ZM59.938 7L60.709 7L60.709 13L59.938 13L59.938 7ZM63.3571 13L63.3571 7.73706L61.6812 7.73706L61.6812 7L65.8041 7L65.8041 7.73706L64.1281 7.73706L64.1281 13L63.3571 13ZM71.4089 13.134C70.5319 13.134 69.7989 12.8309 69.2099 12.225C68.6199 11.619 68.3259 10.877 68.3259 10C68.3259 9.12305 68.6199 8.38098 69.2099 7.77502C69.7989 7.16895 70.5319 6.86499 71.4089 6.86499C72.2809 6.86499 73.0129 7.17004 73.6049 7.77893C74.1969 8.38794 74.4929 9.12793 74.4929 10C74.4929 10.877 74.1979 11.619 73.6089 12.225C73.0189 12.8309 72.2859 13.134 71.4089 13.134ZM71.4089 12.396C72.0519 12.396 72.5959 12.171 73.0389 11.722C73.4829 11.272 73.7059 10.698 73.7059 10C73.7059 9.302 73.4829 8.72803 73.0389 8.27795C72.5959 7.828 72.0519 7.604 71.4089 7.604C70.7659 7.604 70.2229 7.82898 69.7789 8.27795C69.3359 8.72803 69.1129 9.302 69.1129 10C69.1129 10.698 69.3359 11.272 69.7789 11.722C70.2229 12.172 70.7659 12.396 71.4089 12.396ZM75.575 7L76.5129 7L79.429 11.667L79.4619 11.667L79.429 10.511L79.429 7L80.2 7L80.2 13L79.395 13L76.344 8.10596L76.3109 8.10596L76.344 9.26196L76.344 13L75.575 13L75.575 7Z" stroke="#FFFFFF" stroke-width="0.200000"/>
		<g filter="url(#filter_41_10_dd)">
			<path id="Vector" d="M10.436 7.53784C10.145 7.84583 9.97299 8.32385 9.97299 8.94287L9.97299 31.0588C9.97299 31.6788 10.145 32.1559 10.436 32.4639L10.51 32.5359L22.899 20.1469L22.899 20.0009L22.899 19.8549L10.51 7.46484L10.436 7.53784Z" fill-rule="nonzero" fill="url(#paint_linear_41_6_0)"/>
			<path id="Vector" d="M27.028 24.2778L22.899 20.1469L22.899 20.0009L22.899 19.8549L27.029 15.7249L27.122 15.7778L32.015 18.5579C33.412 19.3518 33.412 20.6509 32.015 21.4458L27.122 24.2258L27.028 24.2778Z" fill-rule="nonzero" fill="url(#paint_linear_41_7_0)"/>
			<g filter="url(#filter_41_8_dd)">
				<path id="Vector" d="M27.122 24.225L22.898 20.001L10.436 32.464C10.896 32.952 11.657 33.012 12.514 32.526L27.122 24.225Z" fill-rule="nonzero" fill="url(#paint_linear_41_8_0)"/>
			</g>
			<path id="Vector" d="M27.122 15.777L12.514 7.47693C11.657 6.98999 10.896 7.0509 10.436 7.53894L22.899 20.002L27.122 15.777Z" fill-rule="nonzero" fill="url(#paint_linear_41_9_0)"/>
		</g>
	</g>
	<rect id="Store=Google Play, Style=Black" rx="2.500000" width="134.000000" height="39.000000" transform="translate(0.500000 0.500000)" stroke="#A6A6A6"/>
</svg>
